PathFileType	4	(X/Y/Z)	Patient4_TMGait_0pt8_01_right_39.trc.trc
DataRate	CameraRate	NumFrames	NumMarkers	Units	OrigDataRate	OrigDataStartFrame	OrigNumFrames
89.743589743590	89.743589743590	6	33	mm	89.743589743590	1	       141
Frame#	Time	Sacral			L.Shoulder			Chest			R.Shoulder			Neck			R.ASIS			L.ASIS			R.Thigh.Superior			R.Thigh.Lateral			R.Thigh.Inferior			R.Patella			L.Thigh.Superior			L.Thigh.Lateral			L.Thigh.Inferior			L.Patella			L.Shank.Superior			L.Shank.Lateral			L.Shank.Inferior			R.Shank.Superior			R.Shank.Lateral			R.Shank.Inferior			R.Heel			R.Midfoot.Superior			R.Midfoot.Lateral			R.Toe			L.Heel			L.Midfoot.Lateral			L.Midfoot.Superior			L.Toe			L.Elbow			L.Wrist			R.Elbow			R.Wrist			
		X1	Y1	Z1	X2	Y2	Z2	X3	Y3	Z3	X4	Y4	Z4	X5	Y5	Z5	X6	Y6	Z6	X7	Y7	Z7	X8	Y8	Z8	X9	Y9	Z9	X10	Y10	Z10	X11	Y11	Z11	X12	Y12	Z12	X13	Y13	Z13	X14	Y14	Z14	X15	Y15	Z15	X16	Y16	Z16	X17	Y17	Z17	X18	Y18	Z18	X19	Y19	Z19	X20	Y20	Z20	X21	Y21	Z21	X22	Y22	Z22	X23	Y23	Z23	X24	Y24	Z24	X25	Y25	Z25	X26	Y26	Z26	X27	Y27	Z27	X28	Y28	Z28	X29	Y29	Z29	X30	Y30	Z30	X31	Y31	Z31	X32	Y32	Z32	X33	Y33	Z33	

1	43.770000000000	858.584212247698	1007.553612397587	413.433191556147	1035.597493146137	1429.111811508382	223.331546052770	1138.147698765921	1365.131872280654	387.521546788098	1053.963766126176	1445.088450769038	558.917411152950	1032.010999755271	1496.768297509990	375.717310791331	1087.820014023980	943.944822581653	527.838381501641	1066.857715166912	965.109662943111	255.100015888579	1175.680859164007	780.760167806363	504.693140720197	1139.163679147074	658.668320829483	580.945403800124	1235.768151133928	623.520770093733	508.454926784172	1257.179110850344	508.642399095557	532.282027067105	1111.694558533732	753.191707488683	274.106323501248	1010.360160867370	641.346339317306	223.568196621521	1095.794941718675	559.563973845998	278.943491042885	1093.242019240355	491.988352728486	288.999176966815	1067.781675280751	421.045992917827	284.746524748131	974.666186542104	303.544956421438	247.633672298872	1039.382948257608	196.177139042621	315.348760863245	1179.217552346732	432.856942414936	532.311441741497	1052.842752349091	397.341580112918	585.087882358221	1036.481819285490	290.146961542293	532.850091238798	835.891392544771	243.251816799754	493.951279720521	997.644732425905	168.687530796110	540.792726031063	885.830265038302	174.524394238983	565.467184209799	1049.245612880714	47.958328043959	561.073645764718	922.536330103678	38.681623170372	377.955606322414	987.514767753651	34.647821644250	289.362551838301	1071.545373270818	98.188016862273	306.311967155982	1197.041940219636	49.426358985909	267.123271321169	1068.398154595956	1075.977427500172	108.853370904822	1218.041240279310	861.202884736073	108.246029685498	997.464243048895	1105.221106705832	678.957817328804	1183.308704418894	931.150013704566	627.418673777025	
2	43.781142857143	857.665286815698	1007.562349522699	412.389022523640	1035.905924961744	1429.368703694665	222.886924501461	1137.395093717728	1365.186832013461	387.611558569192	1052.273295445742	1444.875433628212	558.588279838536	1031.452933702367	1496.867399345347	375.276828557472	1086.562695254086	944.428015513109	527.598755864745	1067.620984273589	966.015051252528	254.482101388090	1176.083066765604	783.508108464654	504.422100759683	1141.537138952675	661.209614225994	581.524615858599	1238.152972090024	627.066001287276	508.807494197947	1262.027869935413	513.725616079978	533.054519748056	1109.005943810798	752.213641442796	274.776864740232	1006.020269173497	641.412561947553	223.388530560763	1089.866402192254	558.655151185486	279.021850418501	1086.266806352406	491.131904842337	289.203943425049	1060.614161676946	420.645404715210	284.817913203121	966.801566494772	303.714084729702	247.563446219183	1030.713164628080	195.962616242195	315.395990406289	1187.295593370090	435.519396457528	534.152834909365	1063.503051755240	394.099100606148	587.765726951505	1052.487156610789	286.058415919903	536.426427552259	854.954925836388	228.825495768368	498.885762172168	1019.887737302992	163.060029461313	545.565338186300	908.440189905560	163.913932566791	571.198252923945	1077.415401863119	45.745013682384	567.027654367939	913.104731772361	38.721244102526	377.943973005793	978.135267260699	34.595419007497	289.414301372630	1062.254115260819	98.060087720974	306.373627212029	1187.751188313921	49.259035902728	267.052461098951	1076.558540847372	1078.591072757496	106.478429265838	1235.840801832165	871.699726713965	107.433430847023	991.410127948624	1105.542409946292	679.015120102838	1161.297546614898	916.949514592404	638.051916455184	
3	43.792285714286	856.769820010558	1007.564408533373	411.381483333486	1036.220044169078	1429.607882174122	222.472100896652	1136.665792058027	1365.219661394995	387.717593884841	1050.625766688773	1444.642196965242	558.285595471074	1030.914761865696	1496.946121107247	374.865616693275	1085.337959841313	944.874590287358	527.372701673864	1068.303803989776	966.831172787796	253.902349988177	1176.434818456145	786.125369054436	504.161203989793	1143.768902104411	663.607495927393	582.060626907828	1240.376748519174	630.417892181856	509.121588369816	1266.606714092576	518.633698485691	533.774860198835	1106.375712946520	751.226283503719	275.439561228117	1001.739250491234	641.469228357879	223.227164085026	1084.024749605563	557.754900466493	279.106271793702	1079.403891840730	490.295430002160	289.401063168968	1053.549391850798	420.247098333115	284.892023671197	959.043642437779	303.883271963843	247.502577027260	1022.160824830384	195.748418202311	315.445881243899	1195.142818812339	438.045002976753	535.945640191334	1074.019426109070	390.748370410566	590.453865950782	1068.372303847952	281.901261829546	540.022922472746	874.014391314200	214.322280812415	503.893622920867	1042.051122739204	157.414504854839	550.375797598458	931.002346216880	153.286314782921	576.981950963304	1105.482498032182	43.611244065808	573.068308563438	903.804389488317	38.757840042844	377.931861373380	968.880229794717	34.550460338882	289.462624876577	1053.088744355025	97.934461190866	306.436188111160	1178.580824474948	49.084221001324	266.989027543441	1084.518056417355	1081.172307600424	104.156554629009	1253.277409692613	882.158734820649	106.688848967282	985.465268482953	1105.849270876349	679.091066426764	1139.421947982368	903.287166597259	648.571578153223	
4	43.803428571429	855.928967869759	1007.542797986162	410.448247612308	1036.553815954612	1429.801925736711	222.129854647347	1135.990078401673	1365.195896189428	387.868340235232	1049.071818896081	1444.357713070625	558.048160144587	1030.427040558678	1496.972528073899	374.524473216794	1084.179429098049	945.232769027656	527.184989552688	1068.850396372446	967.470634478061	253.403409396824	1176.654472708439	788.428903775509	503.937138741074	1145.660507038953	665.692295285481	582.545084153169	1242.213979077694	633.336666491102	509.383101857771	1270.603530121828	523.185453507078	534.405579992620	1103.823159759086	750.204213980340	276.086173664921	997.525868534493	641.506742118122	223.103247098117	1078.289109306857	556.859033141997	279.205114765993	1072.686431822015	489.484338077389	289.587600774755	1046.606149715749	419.848318486732	284.974293403964	951.406125374379	304.056493499151	247.459091100376	1013.738362633564	195.533355525211	315.501029185872	1202.545600208298	440.317055996306	537.662894081284	1084.363062718537	387.162673563797	593.190028629186	1084.194324175689	277.648920066226	543.663830508435	893.401560366103	199.630215463256	509.048728431500	1064.334255004326	151.823908719203	555.253573593453	953.812932663602	142.645419766376	582.862687086475	1133.652082498614	41.814993449448	579.238729759213	894.648791829836	38.791590874607	377.918241287935	959.757298354201	34.519174126005	289.504782195537	1044.058637427117	97.810927751432	306.500743763896	1169.535627388859	48.892757191403	266.938764769920	1092.125521948406	1083.701504365583	101.933077822103	1270.085889971037	892.675623355736	106.101285098655	979.655960738693	1106.161902100270	679.224292585231	1117.661817501647	890.701617696606	658.918251397227	
5	43.814571428571	855.172155938279	1007.481317234531	409.621205493708	1036.919325260724	1429.926193494124	221.897994732114	1135.394932472093	1365.085749502410	388.089485234249	1047.656645084101	1443.996543618529	557.910623801057	1030.018239450832	1496.918568669737	374.289373041684	1083.113405036026	945.455553897401	527.059341027206	1069.234725155744	967.873040758448	253.018118400628	1176.668710366153	790.255458281453	503.775021774008	1147.030599458523	667.316681858821	582.979854040732	1243.460569006094	635.611718881439	509.588524506013	1273.754585074922	527.227265585271	534.917254753172	1101.340386841557	749.126884219718	276.702434763138	993.376240025403	641.519286152910	223.030737479801	1072.661178555636	555.961754860877	279.323638704806	1066.124306937251	488.699067711126	289.762741042752	1039.780738709828	419.446629599100	285.069325601952	943.880773793606	304.238405326236	247.438083194052	1005.433853651839	195.316603363317	315.562471528091	1209.330541471193	442.250305346046	539.286689582042	1094.537475948144	383.248109199438	596.007901315816	1100.032559210351	273.310896187677	547.360004577183	913.464938363822	184.690188582758	514.396852231734	1086.950278676612	146.399283975272	560.206738345085	977.185033593378	132.038532695891	588.862251662131	1162.136924179935	40.635471665825	585.542089042173	885.623465907801	38.824451978496	377.901852090007	950.748775618046	34.504495164027	289.539802522751	1035.147554329509	97.688786052645	306.567910204593	1160.596575460295	48.677265780886	266.905164128967	1099.268850195412	1086.162327605816	99.844067620038	1286.064776579710	903.348514638521	105.746604987189	973.982263149393	1106.510142591953	679.447876922656	1095.999109468819	879.635980723184	669.041257789278	
6	43.825714285714	854.526039351728	1007.365277033083	408.925123172360	1037.325345385879	1429.960409461147	221.806723875182	1134.902815113046	1364.866586595227	388.401448427869	1046.418520616924	1443.541386616312	557.900864701409	1029.713219388058	1496.762232160930	374.188836576043	1082.159258148592	945.504800789438	527.017182903233	1069.462630702577	968.009399717598	252.767754037539	1176.419060375533	791.472558003635	503.697679301815	1147.730060704256	668.367863274376	583.379305891360	1243.951117105943	637.078710412691	509.747368941526	1275.867012188812	530.642231763790	535.292799731418	1098.896520808681	747.982133158614	277.269327026709	989.280231688937	641.504993309353	223.017305929033	1067.132522526514	555.056993225006	279.463880199697	1059.712155235002	487.935879259137	289.927452061736	1033.056402678702	419.040277138073	285.180588362044	936.447858121614	304.433582878921	247.441316716067	997.222578307763	195.097976680947	315.629512902505	1215.371397843911	443.797976849349	540.808950504691	1104.561862289512	378.961884794878	598.928028286080	1115.954669475061	268.943753317231	551.099115585256	934.504232829035	169.533866739264	519.936658209004	1110.067642962452	141.294175969855	565.208579463449	1001.380540964341	121.573689135445	594.960142012738	1191.088097776232	40.353180212008	591.922630843349	876.698220738332	38.860073822667	377.881425600839	941.824373469729	34.506278324775	289.568136189106	1026.326152780511	97.567189385246	306.637360197781	1151.733487366495	48.433531437409	266.889064910184	1105.875613880047	1088.538969751993	97.916576662104	1301.070818872159	914.252728260901	105.681443393837	968.425982569091	1106.931468247504	679.787893781474	1074.456448356154	870.408715356240	678.886293791501	
